<svg width="100" height="100" viewBox="0 0 100 100" fill="none" xmlns="http://www.w3.org/2000/svg">
<rect width="100" height="100" rx="25" fill="#1CADD5"/>
<path d="M29.14 75.7C25.64 75.7 22.6067 75.1167 20.04 73.95C17.4733 72.7833 15.49 71.1267 14.09 68.98C12.7367 66.7867 12.0367 64.22 11.99 61.28H20.74C20.74 63.38 21.4867 65.0367 22.98 66.25C24.52 67.4167 26.5967 68 29.21 68C31.73 68 33.69 67.4167 35.09 66.25C36.5367 65.0833 37.26 63.4733 37.26 61.42C37.26 59.6933 36.7467 58.2 35.72 56.94C34.74 55.6333 33.3167 54.7467 31.45 54.28L25.57 52.67C21.5567 51.6433 18.4533 49.8 16.26 47.14C14.1133 44.48 13.04 41.26 13.04 37.48C13.04 34.5867 13.6933 32.0667 15 29.92C16.3067 27.7733 18.15 26.1167 20.53 24.95C22.9567 23.7833 25.8033 23.2 29.07 23.2C34.0167 23.2 37.9367 24.4833 40.83 27.05C43.7233 29.57 45.1933 32.9767 45.24 37.27H36.49C36.49 35.2633 35.8367 33.7 34.53 32.58C33.2233 31.4133 31.38 30.83 29 30.83C26.7133 30.83 24.94 31.3667 23.68 32.44C22.42 33.5133 21.79 35.03 21.79 36.99C21.79 38.7633 22.2567 40.28 23.19 41.54C24.17 42.7533 25.57 43.6167 27.39 44.13L33.48 45.81C37.54 46.8367 40.6433 48.68 42.79 51.34C44.9367 53.9533 46.01 57.1967 46.01 61.07C46.01 63.9633 45.31 66.53 43.91 68.77C42.51 70.9633 40.55 72.6667 38.03 73.88C35.51 75.0933 32.5467 75.7 29.14 75.7Z" fill="white"/>
<path d="M52.45 75L65.33 23.9H76.6L89.55 75H80.59L77.79 62.61H64.21L61.41 75H52.45ZM65.82 55.47H76.18L73.1 41.75C72.5867 39.4633 72.1433 37.41 71.77 35.59C71.3967 33.7233 71.14 32.37 71 31.53C70.86 32.37 70.6033 33.7233 70.23 35.59C69.9033 37.41 69.46 39.44 68.9 41.68L65.82 55.47Z" fill="white"/>
</svg>
